<?xml version="1.0" encoding="UTF-8"?>
<!DOCTYPE svg PUBLIC "-//W3C//DTD SVG 1.1//EN" "http://www.w3.org/Graphics/SVG/1.1/DTD/svg11.dtd">
<!-- Creator: CorelDRAW -->
<svg xmlns="http://www.w3.org/2000/svg" xml:space="preserve" width="162.705mm" height="82.1308mm" style="shape-rendering:geometricPrecision; text-rendering:geometricPrecision; image-rendering:optimizeQuality; fill-rule:evenodd; clip-rule:evenodd"
viewBox="0 0 108.756 54.8981"
 xmlns:xlink="http://www.w3.org/1999/xlink">
 <defs>
  <style type="text/css">
   <![CDATA[
    .fil0 {fill:black}
   ]]>
  </style>
 </defs>
 <g id="Слой_x0020_1">
  <metadata id="CorelCorpID_0Corel-Layer"/>
  <path class="fil0" d="M71.1684 33.9026c0,-3.47165 2.81459,-6.28625 6.28625,-6.28625 3.47165,0 6.28625,2.81459 6.28625,6.28625 0,3.47165 -2.81459,6.28625 -6.28625,6.28625 -3.47165,0 -6.28625,-2.81459 -6.28625,-6.28625zm15.954 -32.9222l-8.73475 12.8881 -0.185888 -0.064837c-7.33614,-2.54469 -15.4268,-3.57312 -23.6522,-3.57312 -8.25743,0 -16.4098,1.0767 -23.7967,3.53983 -0.154005,0.0513349 -0.307742,0.103271 -0.461078,0.155809l-8.79638 -12.9791c-1.39045,-1.81537 -3.79551,-0.440758 -3.45214,1.27722l8.81549 13.0074c-14.6556,6.13993 -25.5461,18.4448 -26.8588,39.6663l108.756 0c-2.69722,-21.7946 -13.2861,-33.8311 -27.1315,-39.7696l9.16247 -13.293c0.343302,-1.71798 -2.27404,-2.67048 -3.66443,-0.855113zm-56.21 26.4704c3.47165,0 6.28625,2.81459 6.28625,6.28625 0,3.47165 -2.81459,6.28618 -6.28625,6.28618 -3.47165,0 -6.28618,-2.81453 -6.28618,-6.28618 0,-3.47165 2.81453,-6.28625 6.28618,-6.28625z"/>
 </g>
</svg>
