<?xml version="1.0" encoding="UTF-8"?>
<!DOCTYPE svg PUBLIC "-//W3C//DTD SVG 1.1//EN" "http://www.w3.org/Graphics/SVG/1.1/DTD/svg11.dtd">
<!-- Creator: CorelDRAW -->
<svg xmlns="http://www.w3.org/2000/svg" xml:space="preserve" width="144.615mm" height="147.582mm" style="shape-rendering:geometricPrecision; text-rendering:geometricPrecision; image-rendering:optimizeQuality; fill-rule:evenodd; clip-rule:evenodd"
viewBox="0 0 85.9161 87.6789"
 xmlns:xlink="http://www.w3.org/1999/xlink">
 <defs>
  <style type="text/css">
   <![CDATA[
    .fil0 {fill:black}
   ]]>
  </style>
 </defs>
 <g id="Слой_x0020_1">
  <metadata id="CorelCorpID_0Corel-Layer"/>
  <path class="fil0" d="M17.9764 78.2492c-20.1508,-6.71682 -23.7678,-30.7427 -8.78376,-50.5061 14.9841,-21.0549 46.7603,-20.2798 59.6774,-10.2044 6.20024,5.68331 7.10435,12.788 -0.129099,13.4337 -3.40124,-0.396683 -7.87995,0.904642 -10.2047,4.13354 -2.89204,4.01674 -3.10015,10.2045 2.58352,13.563 3.61673,1.80857 5.16674,4.0042 4.13365,7.62128 -5.55463,12.013 -25.7054,26.8676 -47.2769,21.959zm57.2229 -31.6469c0.387534,-17.1801 6.62135,-39.4661 8.65472,-46.3728 0.387474,-0.387474 1.42074,-0.258435 1.59523,0.194747 0.295329,6.99325 1.50486,31.5816 -1.72462,46.9531l-8.52533 -0.775008zm8.13779 3.22919l-8.39593 -0.904107 -0.387593 11.2379 6.58778 0.775008 2.19575 -11.1088zm-13.3046 37.8474c16.1466,-0.387474 16.2756,-17.8257 10.8504,-24.5428l-6.45868 -0.516633c-5.16674,4.13365 -7.75032,12.9171 -2.19569,17.9549 2.19569,2.32508 0.645612,6.20018 -2.19604,7.10459zm-22.8671 -43.6156c3.71166,0 6.72056,3.0089 6.72056,6.72056 0,3.71154 -3.0089,6.72038 -6.72056,6.72038 -3.71154,0 -6.72038,-3.00884 -6.72038,-6.72038 0,-3.71166 3.00884,-6.72056 6.72038,-6.72056z"/>
 </g>
</svg>
