<?xml version="1.0" encoding="UTF-8"?>
<!DOCTYPE svg PUBLIC "-//W3C//DTD SVG 1.1//EN" "http://www.w3.org/Graphics/SVG/1.1/DTD/svg11.dtd">
<!-- Creator: CorelDRAW -->
<svg xmlns="http://www.w3.org/2000/svg" xml:space="preserve" width="162.729mm" height="138.374mm" style="shape-rendering:geometricPrecision; text-rendering:geometricPrecision; image-rendering:optimizeQuality; fill-rule:evenodd; clip-rule:evenodd"
viewBox="0 0 108.788 92.5057"
 xmlns:xlink="http://www.w3.org/1999/xlink">
 <defs>
  <style type="text/css">
   <![CDATA[
    .fil0 {fill:black}
   ]]>
  </style>
 </defs>
 <g id="Слой_x0020_1">
  <metadata id="CorelCorpID_0Corel-Layer"/>
  <path class="fil0" d="M27.8423 80.3102l42.1361 0 0 4.01548 -42.1361 0 -0.00949301 8.18003 47.5067 0 0.147743 -92.5057 -47.6449 0.149014 0.0872421 20.0199 42.0798 0.0144401 0 3.99408 -42.166 -0.011298 0.100546 8.18846 42.0655 -0.0147743 0 4.13949 -42.1653 -0.0165125 0.0710639 8.01912 42.0651 0.0435208 0 3.80543 -42.1379 0.0435876 0 8.00254 42.16 0.0365681 0 3.97964 -42.16 -0.0115654 -0.0292144 8.17609 42.1892 0.0123008 0 3.71832 -42.16 -0.00915875 0 8.03102zm74.404 -4.43464l-5.20605 16.3322 -5.19047 -16.0859 -0.015844 -20.0501 10.4109 0 0.00147075 19.8038zm0.00240668 -66.6827l4.01862 -0.033025 -0.00561558 22.8807 2.52634 -0.00354317 -0.00775485 -27.4467 -6.68843 -4.31377 -10.247 0.0032089 -0.015844 51.9451 10.4257 0 -0.0060167 -43.0319zm-78.4264 83.1638l0 -92.2077 -17.5545 0.0288133 -0.0144401 16.3304 5.06325 -0.0723341c2.96102,-1.83108 6.3198,-1.08695 7.8909,0.297559 1.35235,1.19164 2.20031,3.21378 2.23092,5.05643 0.0263398,1.60412 -0.595787,3.00828 -1.63514,4.46165 -1.7304,2.41985 -5.90271,2.71005 -8.33794,1.1899l-5.212 0.0724009 0 13.6826 5.06325 -0.0723341c2.96102,-1.83108 6.3198,-1.08695 7.8909,0.297559 1.35235,1.19164 2.20031,3.21378 2.23092,5.05643 0.0263398,1.60412 -0.595787,3.00828 -1.63514,4.46165 -1.7304,2.41985 -5.90271,2.71005 -8.33794,1.1899l-5.212 -0.0765457 0 13.5336 5.21133 0c2.96102,-1.83108 6.3198,-1.08695 7.8909,0.297559 1.35235,1.19164 2.20031,3.21378 2.23092,5.05643 0.0263398,1.60412 -0.595787,3.00828 -1.63514,4.46171 -1.7304,2.41985 -5.90271,2.70999 -8.33794,1.1899l-5.36007 0 0 15.7644 17.569 0zm-8.3376 -23.6468l-15.336 0 0 4.46165 15.336 0 0 -4.46165zm-15.336 -20.0776l15.336 0 0 -4.3127 -15.336 0 0 4.3127zm-0.148746 -24.5392l15.4847 0 0 -4.46165 -15.4847 0 0 4.46165z"/>
 </g>
</svg>
