<?xml version="1.0" encoding="UTF-8"?>
<!DOCTYPE svg PUBLIC "-//W3C//DTD SVG 1.1//EN" "http://www.w3.org/Graphics/SVG/1.1/DTD/svg11.dtd">
<!-- Creator: CorelDRAW -->
<svg xmlns="http://www.w3.org/2000/svg" xml:space="preserve" width="69.2327mm" height="98.552mm" style="shape-rendering:geometricPrecision; text-rendering:geometricPrecision; image-rendering:optimizeQuality; fill-rule:evenodd; clip-rule:evenodd"
viewBox="0 0 19.6912 28.0302"
 xmlns:xlink="http://www.w3.org/1999/xlink">
 <defs>
  <style type="text/css">
   <![CDATA[
    .fil0 {fill:black}
   ]]>
  </style>
 </defs>
 <g id="Слой_x0020_1">
  <metadata id="CorelCorpID_0Corel-Layer"/>
  <path class="fil0" d="M9.82358 18.8246c1.21115,2.53225 3.88575,5.67214 9.81629,9.20564l0.0137091 -7.41829c-4.4102,-2.98809 -7.28657,-4.81123 -9.80987,-9.57169 -2.82583,4.91234 -5.47726,6.533 -9.8172,9.57169l-0.026508 7.39283c5.80975,-3.66007 7.95647,-6.04027 9.82358,-9.18019zm0.0473845 -9.02427c0.934635,2.50119 3.79713,6.50962 9.82025,9.94878l-0.006627 -6.04462c-4.36162,-3.12649 -7.7886,-8.23307 -9.81365,-13.7045 -2.02505,5.4714 -5.45203,10.578 -9.81365,13.7045l-0.006627 6.04462c6.02312,-3.43916 8.88567,-7.44758 9.8203,-9.94878zm-2.84421e-005 -2.38063c-1.45387,3.23056 -3.84249,7.48328 -8.87901,10.3571l0 -3.55102c3.65446,-2.37591 7.18043,-7.70831 8.87714,-11.8659 1.69668,4.15758 5.22643,9.48998 8.88089,11.8659l0 3.55102c-5.03652,-2.87381 -7.42514,-7.12653 -8.87901,-10.3571zm-0.0372875 9.45073c-1.66531,3.2412 -4.11312,5.86083 -8.88945,8.83268l0 -4.32803c3.62124,-2.35435 6.3663,-4.27075 8.88945,-8.17021 2.1195,3.84884 4.89465,5.71885 8.78237,8.16l0 4.328c-4.99067,-2.84765 -7.34178,-5.6214 -8.78237,-8.82244z"/>
 </g>
</svg>
