<?xml version="1.0" encoding="UTF-8"?>
<!DOCTYPE svg PUBLIC "-//W3C//DTD SVG 1.1//EN" "http://www.w3.org/Graphics/SVG/1.1/DTD/svg11.dtd">
<!-- Creator: CorelDRAW -->
<svg xmlns="http://www.w3.org/2000/svg" xml:space="preserve" width="69.0546mm" height="69.4362mm" style="shape-rendering:geometricPrecision; text-rendering:geometricPrecision; image-rendering:optimizeQuality; fill-rule:evenodd; clip-rule:evenodd"
viewBox="0 0 19.6187 19.7272"
 xmlns:xlink="http://www.w3.org/1999/xlink">
 <defs>
  <style type="text/css">
   <![CDATA[
    .fil0 {fill:black}
   ]]>
  </style>
 </defs>
 <g id="Слой_x0020_1">
  <metadata id="CorelCorpID_0Corel-Layer"/>
  <path class="fil0" d="M9.8094 9.78942c0.933596,2.49842 3.79291,6.50239 9.80934,9.93773l-0.00661964 -6.03791c-4.35677,-3.12302 -7.77995,-8.22392 -9.80275,-13.6892 -2.0228,5.46532 -5.44597,10.5662 -9.80275,13.6892l-0.00661964 6.03791c6.01643,-3.43534 8.8758,-7.43931 9.8094,-9.93773zm-2.84105e-005 -2.37798c-1.45226,3.22697 -3.83823,7.47496 -8.86915,10.3456l0 -3.54708c3.6504,-2.37327 7.17245,-7.69975 8.86728,-11.8527 1.6948,4.15296 5.22062,9.47944 8.87103,11.8527l0 3.54708c-5.03093,-2.87062 -7.41689,-7.11861 -8.86915,-10.3456z"/>
 </g>
</svg>
