<?xml version="1.0" encoding="UTF-8"?>
<!DOCTYPE svg PUBLIC "-//W3C//DTD SVG 1.1//EN" "http://www.w3.org/Graphics/SVG/1.1/DTD/svg11.dtd">
<!-- Creator: CorelDRAW -->
<svg xmlns="http://www.w3.org/2000/svg" xml:space="preserve" width="162.72mm" height="122.529mm" style="shape-rendering:geometricPrecision; text-rendering:geometricPrecision; image-rendering:optimizeQuality; fill-rule:evenodd; clip-rule:evenodd"
viewBox="0 0 108.776 81.9089"
 xmlns:xlink="http://www.w3.org/1999/xlink">
 <defs>
  <style type="text/css">
   <![CDATA[
    .fil0 {fill:black}
   ]]>
  </style>
 </defs>
 <g id="Слой_x0020_1">
  <metadata id="CorelCorpID_0Corel-Layer"/>
  <path class="fil0" d="M12.1128 27.9936l-11.9153 0 42.4677 44.9117 -30.5523 -44.9117zm40.4371 0.420009l-35.1351 0 35.3874 53.4953 -0.252286 -53.4953zm3.86511 0l35.1351 0 -35.3873 53.4953 0.252219 -53.4953zm-37.1668 -24.7477l-19.2482 20.7758 11.6101 0 7.63811 -20.7758zm-3.36094 18.026l7.63818 -21.6919 12.8319 0 -20.4701 21.6919zm22.6085 -18.9422l-20.0114 21.6919 32.729 0 -12.7175 -21.6919zm51.0322 0.916159l19.2482 20.7758 -11.6101 0 -7.63811 -20.7758zm3.36094 18.026l-7.63818 -21.6919 -12.8319 0 20.4701 21.6919zm-22.6085 -18.9422l20.0114 21.6919 -32.729 0 12.7175 -21.6919zm-15.7447 20.0118l-13.7485 -22.6088 27.0387 0 -13.2902 22.6088zm42.3165 5.23203l11.9153 0 -42.4677 44.9117 30.5523 -44.9117z"/>
 </g>
</svg>
